<svg width="24" height="24" viewBox="0 0 24 24" fill="none" xmlns="http://www.w3.org/2000/svg">
<rect width="24" height="24" rx="6" fill="#FEDE00"/>
<path d="M19.8336 19.8C19.8336 19.9105 19.744 20 19.6336 20H4.2C4.08954 20 4 19.9105 4 19.8V19.2588C4 19.1484 4.08954 19.0588 4.2 19.0588H19.6336C19.744 19.0588 19.8336 19.1484 19.8336 19.2588V19.8Z" fill="#03033A"/>
<path fill-rule="evenodd" clip-rule="evenodd" d="M5.42784 13.3632C5.42784 13.0871 5.6517 12.8632 5.92784 12.8632H7.00864C7.28479 12.8632 7.50864 13.0871 7.50864 13.3632V17.4742C7.50864 17.7503 7.28479 17.9742 7.00864 17.9742H5.92784C5.6517 17.9742 5.42784 17.7503 5.42784 17.4742V13.3632Z" fill="#03033A"/>
<path fill-rule="evenodd" clip-rule="evenodd" d="M9.02937 7.32355C9.02937 7.04741 9.25323 6.82355 9.52937 6.82355H10.6102C10.8863 6.82355 11.1102 7.0474 11.1102 7.32355V17.494C11.1102 17.7701 10.8863 17.994 10.6102 17.994H9.52937C9.25323 17.994 9.02937 17.7701 9.02937 17.494V7.32355Z" fill="#03033A"/>
<path fill-rule="evenodd" clip-rule="evenodd" d="M12.6309 10.9316C12.6309 10.6554 12.8548 10.4316 13.1309 10.4316H14.2117C14.4878 10.4316 14.7117 10.6554 14.7117 10.9316V17.4623C14.7117 17.7384 14.4878 17.9623 14.2117 17.9623H13.1309C12.8548 17.9623 12.6309 17.7384 12.6309 17.4623V10.9316Z" fill="#03033A"/>
<path fill-rule="evenodd" clip-rule="evenodd" d="M16.2943 4.5C16.2943 4.22386 16.5181 4 16.7943 4H17.8751C18.1512 4 18.3751 4.22386 18.3751 4.5V17.4619C18.3751 17.7381 18.1512 17.9619 17.8751 17.9619H16.7943C16.5181 17.9619 16.2943 17.7381 16.2943 17.4619V4.5Z" fill="#03033A"/>
</svg>
