<svg width="18" height="26" viewBox="0 0 18 26" fill="none" xmlns="http://www.w3.org/2000/svg">
<path d="M9.33394 2.8703C9.33394 2.71203 9.27107 2.56025 9.15916 2.44834C9.04725 2.33643 8.89547 2.27356 8.7372 2.27356C5.44677 2.27356 2.76979 4.95054 2.76979 8.24097C2.76979 8.39923 2.83266 8.55102 2.94457 8.66293C3.05648 8.77484 3.20827 8.83771 3.36653 8.83771C3.5248 8.83771 3.67658 8.77484 3.78849 8.66293C3.9004 8.55102 3.96327 8.39923 3.96327 8.24097C3.96327 5.60874 6.10498 3.46704 8.7372 3.46704C8.89547 3.46704 9.04725 3.40417 9.15916 3.29226C9.27107 3.18035 9.33394 3.02857 9.33394 2.8703Z" fill="white"/>
<path d="M7.69052 26H9.78388C10.2584 25.9992 10.7133 25.8103 11.0489 25.4748C11.3845 25.1392 11.5733 24.6843 11.5741 24.2098V23.554C11.8857 23.4118 12.15 23.1833 12.3356 22.8955C12.5212 22.6077 12.6204 22.2727 12.6214 21.9302V19.7104C12.7264 19.4824 12.7891 19.2318 12.7891 18.9644C12.7891 18.3581 12.9239 17.7709 13.1895 17.2178C13.4554 16.6659 13.8344 16.1762 14.3018 15.7802C16.5372 13.8915 17.7086 11.0129 17.4347 8.07689C17.017 3.67592 13.3691 0.206472 8.92219 0.0059674L8.7372 0L8.52596 0.0065641C4.1053 0.206472 0.457422 3.67592 0.0391062 8.07808C-0.234201 11.0123 0.937202 13.8915 3.17259 15.7796C3.63989 16.1759 4.01883 16.6659 4.28492 17.2178C4.55047 17.7709 4.68533 18.3581 4.68533 18.9644C4.68533 19.2312 4.74799 19.4824 4.85301 19.7104V21.9308C4.85301 22.6523 5.28386 23.2717 5.9003 23.5546V24.211C5.9014 24.6853 6.0904 25.1399 6.42593 25.4752C6.76146 25.8105 7.21617 25.9992 7.69052 26ZM10.3806 24.2098C10.3806 24.5392 10.1127 24.8065 9.78388 24.8065H7.69052C7.36171 24.8065 7.09378 24.5386 7.09378 24.2098V23.7205H10.3806V24.2098ZM11.4279 21.9308C11.4279 22.2596 11.1606 22.5276 10.8312 22.5276H6.64324C6.31384 22.5276 6.0465 22.2596 6.0465 21.9308V20.6968C6.18494 20.7314 6.32696 20.7546 6.47555 20.7546H10.9989C11.1474 20.7546 11.2895 20.7314 11.4279 20.6968V21.9308ZM5.87881 18.9644C5.87946 18.1805 5.70236 17.4066 5.36084 16.701C5.02138 15.9978 4.53839 15.3735 3.94299 14.8684C2.00537 13.2321 0.990311 10.7354 1.22722 8.19027C1.58944 4.37769 4.74978 1.37191 8.55221 1.19945L8.7372 1.19348L8.89534 1.19885C12.7246 1.37191 15.885 4.37769 16.2466 8.18908C16.4841 10.7354 15.469 13.2321 13.5314 14.8684C12.936 15.3735 12.453 15.9978 12.1136 16.701C11.772 17.4066 11.5949 18.1805 11.5956 18.9644C11.5956 19.2932 11.3283 19.5612 10.9989 19.5612H6.47555C6.14615 19.5612 5.87881 19.2932 5.87881 18.9644Z" fill="white"/>
</svg>
