<svg width="17" height="26" viewBox="0 0 17 26" fill="none" xmlns="http://www.w3.org/2000/svg">
<path d="M16.1594 10.0117C16.112 9.92795 16.0431 9.85828 15.96 9.80982C15.8768 9.76135 15.7823 9.73581 15.686 9.73581H8.55752L9.75263 0.604402C9.76546 0.482193 9.73678 0.359224 9.67122 0.255294C9.60566 0.151364 9.50703 0.0725209 9.39121 0.0314596C9.27539 -0.00960179 9.14913 -0.0104923 9.03275 0.0289315C8.91636 0.0683553 8.81663 0.145799 8.74961 0.248794L0.0806051 15.4366C0.0299113 15.519 0.00212723 15.6135 0.000117361 15.7103C-0.00189251 15.807 0.0219445 15.9026 0.069171 15.9871C0.116398 16.0716 0.185304 16.1419 0.268786 16.1909C0.352268 16.2399 0.447303 16.2657 0.544093 16.2657H7.56606L6.61895 25.4109C6.60965 25.5327 6.64134 25.6541 6.70898 25.7558C6.77663 25.8575 6.87635 25.9336 6.99226 25.9721C7.10818 26.0106 7.23365 26.0092 7.34869 25.9682C7.46373 25.9272 7.56175 25.8488 7.62714 25.7457L16.1529 10.5595C16.2023 10.4769 16.229 10.3827 16.2301 10.2865C16.2313 10.1903 16.2069 10.0954 16.1594 10.0117Z" fill="#FEDE00"/>
</svg>
